<?xml version="1.0" standalone="no"?>
<!DOCTYPE svg PUBLIC "-//W3C//DTD SVG 20010904//EN"
 "http://www.w3.org/TR/2001/REC-SVG-20010904/DTD/svg10.dtd">
<svg version="1.0" xmlns="http://www.w3.org/2000/svg"
 width="512.000000pt" height="512.000000pt" viewBox="0 0 512.000000 512.000000"
 preserveAspectRatio="xMidYMid meet">
<metadata>
Created by potrace 1.14, written by Peter Selinger 2001-2017
</metadata>
<g transform="translate(0.000000,512.000000) scale(0.100000,-0.100000)"
fill="#000000" stroke="none">
<path d="M4780 5095 c0 -15 6 -25 15 -25 10 0 14 -9 12 -30 -1 -16 -7 -30 -14
-30 -6 0 -9 -8 -6 -20 4 -16 22 -28 56 -36 4 -1 9 -2 12 -3 3 0 1 -10 -5 -21
-9 -16 -8 -20 5 -20 8 0 15 -6 15 -13 0 -7 9 -13 20 -14 11 -1 18 2 15 8 -4 5
-1 9 4 9 6 0 11 -4 11 -9 0 -5 8 -12 18 -14 16 -4 16 -5 0 -6 -12 -1 -18 -9
-17 -23 1 -17 2 -19 6 -5 6 23 40 22 53 -3 9 -16 8 -20 -5 -20 -8 0 -15 -4
-15 -9 0 -5 11 -8 25 -6 16 1 25 -3 25 -12 0 -8 -4 -11 -10 -8 -6 4 -10 -8
-10 -29 0 -20 -4 -36 -10 -36 -5 0 -10 -10 -10 -23 0 -13 -3 -27 -7 -31 -5 -4
-8 -11 -8 -14 -1 -4 -6 -17 -14 -30 -15 -28 -12 -92 6 -110 7 -8 11 -17 8 -22
-3 -5 -1 -10 4 -12 6 -1 12 -15 15 -30 4 -22 1 -26 -15 -23 -12 2 -17 0 -13
-6 3 -6 19 -9 35 -7 20 3 29 0 29 -9 0 -7 5 -13 10 -13 6 0 10 5 10 10 0 6 3
9 8 8 4 0 15 2 25 7 10 4 20 5 24 2 3 -3 12 0 19 8 11 11 14 78 14 354 l0 341
-170 0 -170 0 0 -25z m191 -218 c-10 -9 -11 -8 -5 6 3 10 9 15 12 12 3 -3 0
-11 -7 -18z"/>
<path d="M1891 4455 c-132 -37 -174 -54 -302 -126 -97 -54 -128 -78 -211 -164
-107 -110 -149 -177 -191 -310 -58 -182 -60 -193 -53 -317 6 -127 0 -145 -37
-110 -27 25 -124 44 -164 33 -53 -15 -97 -43 -153 -95 -133 -124 -180 -220
-183 -371 -2 -88 -1 -91 34 -145 67 -104 142 -149 255 -156 58 -3 80 0 99 12
19 12 25 13 25 3 0 -8 6 -5 14 7 17 23 16 24 40 -46 27 -80 77 -190 87 -190 5
0 6 7 3 15 -9 23 10 18 37 -11 13 -14 48 -40 77 -56 28 -16 52 -32 52 -35 0
-15 -97 23 -120 47 -3 3 -14 11 -25 19 -11 9 -8 2 7 -14 15 -16 57 -45 94 -64
51 -27 68 -41 69 -58 2 -33 11 -37 44 -23 26 10 32 9 51 -8 l22 -20 -31 -42
c-17 -24 -31 -52 -31 -63 0 -17 8 -12 45 25 24 25 60 53 79 62 44 21 96 17
110 -9 6 -11 14 -22 17 -25 4 -3 10 -21 13 -40 12 -58 27 -80 65 -90 51 -14
62 -46 59 -166 -3 -99 -3 -99 -28 -97 -162 17 -195 15 -230 -9 -29 -20 -38
-36 -58 -103 -29 -97 -42 -126 -54 -119 -5 4 -4 -3 4 -15 7 -12 39 -30 73 -41
102 -34 136 -66 198 -185 48 -95 48 -240 -1 -297 -21 -25 -35 -22 -54 12 -29
51 -76 33 -110 -42 -29 -64 -78 -111 -78 -75 0 7 -9 23 -21 36 -11 12 -30 39
-42 60 -32 55 -77 103 -122 131 -22 13 -48 32 -58 42 -10 10 -30 20 -45 24
-44 9 -82 26 -82 35 0 5 -7 9 -15 9 -23 0 -18 23 16 87 63 118 109 180 123
166 7 -7 25 40 23 58 -2 8 -7 20 -11 28 -6 9 -5 12 2 7 18 -11 26 16 9 29 -10
7 -17 18 -17 24 0 7 -4 10 -9 7 -5 -3 -14 1 -21 9 -7 8 -18 15 -24 15 -20 0
-91 64 -94 85 -2 11 -11 27 -20 36 -20 18 -117 59 -141 59 -10 0 -21 4 -26 9
-11 10 -70 30 -110 37 -15 3 -52 -1 -83 -7 -74 -15 -106 -14 -137 7 -40 26
-134 13 -172 -23 -56 -55 -96 -78 -159 -91 -54 -11 -73 -10 -129 3 -37 8 -70
15 -76 15 -6 0 -8 -341 -7 -901 l3 -901 43 -24 43 -24 919 0 c866 0 919 1 924
18 3 9 6 40 7 67 6 116 89 265 149 265 16 0 30 7 34 15 3 8 13 15 22 15 12 0
15 6 11 21 -5 17 11 40 71 103 42 45 102 110 132 145 101 116 122 134 131 119
10 -14 13 -122 10 -297 -1 -80 -6 -124 -17 -147 -14 -28 -14 -39 -4 -64 8 -20
11 -68 9 -142 -4 -100 -2 -113 13 -116 21 -4 58 51 58 86 0 12 6 22 14 22 13
0 26 -41 26 -86 l0 -24 673 2 c369 1 621 4 560 5 -69 2 -113 8 -113 14 0 6 5
7 12 3 7 -4 8 -3 4 4 -4 7 -13 12 -21 12 -7 0 -25 14 -40 31 -22 27 -25 38
-20 73 6 48 1 58 -40 71 -16 6 -35 22 -42 35 -7 14 -13 22 -13 18 0 -9 -45 28
-74 61 -12 13 -26 29 -32 35 -5 6 -13 18 -17 26 -20 41 -34 59 -41 53 -4 -4
-4 0 0 10 3 9 10 14 15 11 5 -3 8 6 7 19 -2 23 -28 35 -28 13 0 -6 -5 -3 -10
6 -9 15 -46 35 -151 82 -20 9 -51 29 -69 46 -18 17 -43 33 -57 36 -35 9 -102
-4 -132 -25 -25 -18 -52 -24 -151 -37 -45 -5 -45 -5 -64 36 -10 23 -22 76 -27
117 -9 84 -31 168 -59 228 -10 22 -21 54 -23 71 -3 17 -9 39 -15 50 -5 10 -19
60 -30 109 -11 50 -26 110 -33 133 -11 39 -10 49 11 98 13 32 20 64 16 77 -3
12 -29 41 -58 65 -56 47 -60 46 -72 -19 -10 -58 -26 -65 -99 -45 -65 18 -115
39 -257 111 -165 84 -192 99 -196 110 -3 6 -1 67 3 135 8 124 8 125 34 128 16
2 46 -11 85 -37 78 -52 114 -59 267 -53 125 5 126 5 155 36 17 17 36 54 44 81
12 44 19 53 63 77 27 14 101 41 164 59 132 37 201 64 201 78 0 5 -26 15 -57
21 -262 51 -360 103 -448 236 -71 106 -100 172 -119 270 -9 44 -18 88 -21 99
-2 11 -23 40 -46 65 -22 25 -74 86 -115 135 -40 50 -88 107 -105 127 -31 36
-32 39 -15 57 10 11 30 24 46 31 38 16 58 60 74 167 7 48 17 96 21 105 10 25
109 70 164 76 31 3 77 -4 132 -18 121 -33 167 -35 207 -11 39 25 43 62 10 79
-71 35 -311 55 -395 33 -22 -6 -65 -29 -97 -52 -67 -48 -78 -44 -97 34 -6 29
-32 107 -55 175 -24 68 -44 130 -44 138 0 28 53 64 134 91 75 25 94 26 261 27
99 1 218 -4 265 -11 65 -9 87 -9 93 0 42 65 -37 213 -144 267 -45 24 -147 50
-192 50 -19 0 -54 7 -78 16 -29 10 -91 17 -184 20 -127 4 -149 2 -234 -21z
m-384 -1146 c45 -17 91 -68 109 -121 9 -27 14 -51 12 -54 -3 -2 -23 18 -46 45
-68 81 -136 103 -264 87 -33 -4 -27 9 16 35 35 21 126 26 173 8z m-80 -130
c40 -15 91 -67 119 -121 13 -26 24 -52 24 -57 0 -5 5 -22 10 -37 l11 -27 23
22 23 22 41 -38 c49 -45 52 -61 16 -94 -24 -22 -33 -24 -127 -24 -93 0 -108 3
-168 31 -115 55 -179 129 -179 209 0 29 23 94 33 95 1 0 20 7 42 15 48 17 94
19 132 4z m819 -1857 c23 -5 57 -18 75 -30 19 -11 52 -24 74 -27 46 -9 75 -30
75 -56 0 -18 -30 -77 -76 -150 -25 -40 -103 -116 -181 -178 -43 -34 -53 -38
-54 -24 -1 10 -2 70 -3 133 0 63 -7 140 -14 170 -7 30 -16 66 -18 80 -3 14 -9
29 -15 35 -14 14 -11 36 9 52 17 14 52 13 128 -5z m-1595 -389 c54 -58 152
-267 164 -346 9 -60 27 -76 44 -40 8 17 9 29 2 36 -12 12 -3 37 15 37 8 0 14
-9 14 -20 0 -11 5 -20 10 -20 6 0 10 -12 10 -27 0 -16 6 -36 14 -45 7 -10 11
-35 9 -60 -2 -24 2 -52 8 -64 11 -21 11 -21 42 7 17 15 34 26 38 24 3 -3 26
16 50 42 24 26 64 68 89 94 64 68 110 120 110 125 0 2 11 17 25 32 14 16 32
37 40 48 8 10 15 14 15 8 0 -20 -29 -78 -55 -109 -14 -16 -25 -33 -25 -37 0
-16 -245 -337 -305 -398 -34 -36 -70 -78 -80 -95 -9 -16 -31 -41 -48 -55 -17
-14 -28 -19 -23 -12 5 9 3 13 -5 11 -22 -4 -89 12 -95 23 -3 5 -13 6 -23 3
-11 -3 -34 10 -65 40 -27 25 -52 45 -56 45 -4 0 -13 11 -20 25 -7 14 -19 25
-27 25 -7 0 -13 7 -13 15 0 8 -14 30 -31 50 -17 19 -26 35 -20 35 15 0 14 27
-1 37 -16 10 -33 36 -58 89 -11 23 -27 44 -35 48 -18 7 -21 66 -2 66 8 0 7 4
-3 10 -10 6 -11 10 -2 10 7 0 12 13 12 29 0 45 17 81 39 81 12 0 21 9 25 25 4
14 11 25 16 25 6 0 10 6 10 14 0 8 14 30 31 48 17 18 37 45 45 61 8 15 21 27
29 27 9 0 15 9 15 23 0 46 34 50 71 10z m2009 -219 c19 -36 21 -298 4 -328
-11 -18 -13 -17 -30 15 -11 22 -18 57 -18 99 -1 36 -4 70 -7 75 -10 18 -10 93
1 100 5 3 10 22 10 41 0 43 18 42 40 -2z m-1150 -262 c0 -13 -12 -22 -22 -16
-10 6 -1 24 13 24 5 0 9 -4 9 -8z m1140 -142 c0 -5 -2 -10 -4 -10 -3 0 -8 5
-11 10 -3 6 -1 10 4 10 6 0 11 -4 11 -10z"/>
<path d="M2860 3642 c0 -28 48 -91 75 -98 14 -3 36 -3 50 0 20 5 25 13 25 35
0 39 -24 61 -65 61 -19 0 -45 4 -59 10 -22 8 -26 7 -26 -8z"/>
<path d="M2471 3560 l-24 -6 29 -18 c16 -10 38 -30 50 -44 24 -29 42 -24 42
12 0 42 -47 69 -97 56z"/>
<path d="M2436 3444 c-39 -40 -53 -95 -37 -152 16 -62 26 -70 92 -78 50 -6 59
-4 79 16 19 19 22 29 17 72 -8 67 -40 129 -76 151 -38 22 -44 22 -75 -9z"/>
<path d="M2849 3373 c-31 -80 5 -195 65 -212 64 -17 85 46 45 138 -18 42 -41
68 -87 95 -8 5 -16 -2 -23 -21z"/>
<path d="M2702 2980 c-18 -4 -36 -10 -39 -14 -13 -12 18 -57 108 -155 74 -80
98 -101 120 -101 25 0 27 4 33 54 8 57 21 75 89 115 48 29 64 57 40 69 -64 34
-267 52 -351 32z"/>
<path d="M5087 2728 c-47 -64 -114 -211 -129 -282 -9 -42 -9 -67 0 -103 6 -26
14 -104 18 -173 3 -69 12 -145 19 -170 23 -79 25 -109 11 -178 -8 -37 -17 -98
-21 -137 -7 -68 -9 -72 -64 -130 -31 -33 -72 -81 -91 -107 -37 -49 -96 -88
-135 -88 -14 0 -40 18 -68 46 -51 51 -92 67 -180 68 -54 1 -60 4 -94 41 -20
22 -39 39 -42 39 -8 -2 -17 1 -88 26 -77 27 -122 22 -206 -23 -34 -19 -75 -37
-91 -41 -69 -17 -208 -147 -231 -215 -8 -26 -29 -61 -45 -78 -31 -32 -54 -111
-70 -253 -5 -41 -12 -84 -15 -96 -4 -11 3 -62 15 -112 20 -85 21 -96 7 -135
-12 -37 -13 -50 -1 -82 13 -40 87 -116 139 -142 59 -31 196 -145 234 -196 21
-29 50 -84 65 -124 l25 -72 -52 -4 c-29 -2 212 -4 536 -5 l587 -2 0 1380 c0
759 -2 1380 -4 1380 -3 0 -16 -15 -29 -32z m3 -2153 c0 -19 -17 -27 -41 -20
-19 6 -19 8 -4 25 18 20 45 17 45 -5z"/>
<path d="M0 2706 c0 -48 92 -242 119 -251 10 -3 29 -26 43 -51 24 -44 27 -46
78 -49 77 -6 116 14 141 70 23 53 18 68 -38 110 -21 15 -52 42 -70 58 -28 26
-33 28 -39 14 -3 -9 -1 -31 5 -48 25 -71 5 -98 -59 -84 -36 8 -64 45 -128 170
-50 96 -52 99 -52 61z"/>
<path d="M2470 2700 c0 -5 15 -11 33 -14 43 -7 305 -16 292 -11 -9 4 -292 35
-316 35 -5 0 -9 -4 -9 -10z"/>
<path d="M2791 2600 c23 -13 169 -24 149 -12 -8 5 -49 12 -90 15 -48 4 -69 2
-59 -3z"/>
<path d="M0 2311 c0 -39 2 -71 5 -71 10 0 84 40 89 48 2 4 -17 27 -45 51 l-49
42 0 -70z"/>
</g>
</svg>
